<?xml version="1.0" standalone="no"?>
<!DOCTYPE svg PUBLIC "-//W3C//DTD SVG 20010904//EN"
 "http://www.w3.org/TR/2001/REC-SVG-20010904/DTD/svg10.dtd">
<svg version="1.0" xmlns="http://www.w3.org/2000/svg"
 width="1920.000000pt" height="960.000000pt" viewBox="0 0 1920.000000 960.000000"
 preserveAspectRatio="xMidYMid meet">

<g transform="translate(0.000000,960.000000) scale(0.100000,-0.100000)"
fill="#000000" stroke="none">
<path d="M0 8000 l0 -1600 9600 0 9600 0 0 1600 0 1600 -9600 0 -9600 0 0
-1600z m12739 1303 c-17 -64 -77 -149 -148 -210 l-60 -53 6 -55 c7 -63 -7 -73
-32 -24 -9 17 -18 29 -19 27 -2 -1 1 -43 5 -93 4 -49 17 -259 28 -465 12 -206
24 -394 27 -418 5 -36 17 -55 92 -135 153 -164 250 -313 287 -440 18 -63 22
-186 7 -226 -7 -21 -11 -15 -25 45 -34 137 -123 277 -298 472 l-46 50 1 -311
1 -312 -29 -85 c-16 -47 -32 -89 -36 -93 -4 -4 -10 65 -14 155 -3 89 -15 299
-27 466 -18 280 -22 306 -42 334 -26 35 -358 350 -364 345 -2 -2 10 -170 27
-373 22 -272 30 -430 30 -604 0 -234 0 -237 -26 -288 -31 -62 -93 -116 -164
-143 -66 -25 -170 -25 -225 0 -71 32 -131 117 -160 226 -17 69 -21 75 -46 75
-54 0 -135 -77 -182 -174 -15 -30 -38 -95 -51 -143 -52 -196 -119 -255 -234
-207 -109 45 -171 174 -173 359 -1 71 -5 95 -20 114 -15 18 -19 41 -19 95 0
131 39 235 138 364 l55 74 -172 171 -173 172 6 -75 c3 -41 9 -226 13 -410 l6
-335 -34 -104 c-39 -117 -46 -112 -48 34 -1 44 -15 283 -31 530 -16 248 -30
459 -30 470 0 11 -52 80 -115 153 -63 74 -152 191 -199 260 -46 70 -108 154
-136 187 l-52 60 5 83 c3 46 8 86 11 89 11 12 150 -91 234 -172 56 -55 82 -88
82 -104 0 -17 -4 -22 -16 -17 -9 3 -28 9 -42 13 l-26 6 18 -29 c11 -16 62 -84
115 -152 87 -111 96 -120 99 -95 1 15 -9 199 -22 407 l-25 380 36 68 c19 37
39 65 44 63 16 -11 91 -261 97 -322 2 -35 2 -63 -1 -63 -3 0 -15 15 -27 33
l-21 32 6 -90 c3 -49 14 -224 24 -387 19 -296 19 -298 46 -329 14 -18 114
-122 221 -233 l194 -201 159 160 159 160 -48 510 c-27 281 -51 528 -54 550 -4
33 2 53 33 114 44 85 41 87 85 -37 40 -111 67 -229 60 -258 l-6 -25 -24 38
-24 38 5 -40 c3 -22 19 -209 36 -415 17 -206 32 -376 33 -377 1 -1 80 76 176
172 l174 174 -32 43 c-17 24 -71 99 -119 168 -48 69 -104 143 -124 165 -36 39
-37 42 -40 133 -2 50 -1 91 3 90 4 -2 73 -57 154 -123 201 -165 184 -154 184
-114 0 19 -7 94 -14 168 l-15 134 36 71 c44 87 44 86 107 -103 44 -132 57
-211 36 -211 -5 0 -10 3 -10 8 0 4 -8 17 -18 29 -16 22 -16 15 -3 -132 9 -88
19 -155 25 -155 5 0 57 46 115 103 59 57 135 128 170 159 l63 55 -9 84 -10 84
40 73 c45 84 44 84 83 -32 l26 -78 122 121 c66 67 123 116 125 110 2 -6 -3
-31 -10 -56z m249 -123 c62 -203 73 -255 63 -281 l-8 -23 -16 29 c-13 24 -16
26 -17 10 0 -36 29 -472 56 -820 37 -481 29 -698 -31 -880 -92 -278 -276 -418
-650 -496 -58 -13 -108 -19 -112 -16 -8 9 -17 4 139 84 244 126 436 270 507
381 43 68 71 154 77 242 7 101 -109 1685 -126 1722 -10 22 -10 33 3 65 38 94
59 134 67 127 4 -5 26 -70 48 -144z m-6064 52 c51 -142 81 -292 58 -292 -4 0
-15 12 -24 28 l-17 27 -1 -25 c0 -42 38 -532 42 -536 2 -2 26 7 54 20 100 46
162 155 171 301 7 96 -10 232 -38 312 -12 35 -18 71 -15 91 7 45 37 122 47
122 17 0 59 -165 79 -307 32 -234 39 -273 65 -322 60 -118 181 -175 288 -137
50 18 77 43 77 72 0 12 -20 73 -44 136 -24 62 -69 191 -101 287 l-58 174 22
69 c12 37 26 68 31 68 26 0 140 -175 140 -215 0 -17 -1 -17 -18 -2 -17 15 -42
23 -42 13 0 -2 22 -64 49 -138 71 -193 84 -249 78 -338 -12 -170 -104 -290
-224 -290 -47 0 -123 32 -166 70 -47 41 -127 181 -127 221 0 37 -17 18 -34
-38 -41 -131 -116 -246 -188 -286 l-40 -22 6 -95 c3 -52 11 -180 17 -285 6
-104 9 -261 6 -350 -4 -142 -8 -168 -32 -230 -38 -102 -45 -102 -45 1 0 49
-14 269 -30 489 -17 220 -30 410 -30 421 0 17 -8 23 -41 28 -116 19 -185 97
-210 241 -13 78 -8 149 20 255 22 81 26 130 12 130 -12 0 -57 -54 -76 -89 -23
-46 -54 -152 -74 -259 -23 -118 -60 -208 -103 -249 -24 -23 -38 -28 -81 -28
-144 0 -204 164 -163 445 20 134 41 185 29 70 -4 -41 -8 -122 -8 -180 0 -94 3
-111 28 -161 29 -60 69 -89 121 -89 70 0 103 46 136 190 35 155 66 249 114
345 62 125 141 224 162 202 9 -9 -6 -101 -40 -242 -37 -153 -43 -233 -22 -288
22 -57 72 -105 130 -122 l46 -14 0 37 c0 27 -41 584 -52 707 -2 19 74 147 82
138 4 -4 20 -41 34 -81z m3196 24 c-36 -79 -47 -140 -30 -161 18 -22 56 -18
80 7 16 18 20 19 20 6 0 -57 -49 -118 -95 -118 -75 0 -86 88 -27 211 28 58 67
119 77 119 2 0 -9 -29 -25 -64z m-2212 -48 c53 -136 74 -211 70 -250 l-3 -33
-22 35 c-29 45 -29 42 -3 -183 11 -94 31 -289 44 -432 14 -143 28 -288 32
-323 7 -77 17 -73 70 29 20 38 47 80 61 95 22 24 26 25 40 12 12 -13 13 -22 2
-58 -13 -41 -12 -43 16 -67 26 -22 36 -25 97 -21 86 5 97 15 77 71 -15 41 -15
43 19 117 33 71 35 74 45 50 5 -14 10 -77 11 -140 1 -107 -1 -119 -27 -173
-49 -99 -125 -136 -213 -102 -30 11 -55 31 -75 58 -16 22 -29 35 -29 29 0 -6
-17 -32 -37 -59 l-37 -48 3 -135 c2 -126 1 -141 -27 -222 -33 -98 -73 -161
-171 -270 -188 -210 -419 -359 -674 -432 -166 -48 -263 -56 -381 -31 -91 19
-147 47 -200 101 l-44 44 -139 -11 c-77 -6 -164 -9 -194 -7 l-54 3 90 32 c50
17 126 45 170 62 l80 31 0 142 c0 124 4 156 27 238 29 103 88 273 94 268 2 -2
-6 -37 -16 -78 -28 -108 -42 -245 -34 -320 9 -89 41 -190 60 -190 21 0 315
149 425 216 140 84 251 167 347 258 82 79 85 83 78 117 -13 69 -20 72 -115 48
-140 -35 -249 -11 -287 64 -22 42 -14 155 16 224 26 61 91 125 143 142 76 25
172 -29 239 -134 l41 -64 31 21 c17 12 56 44 86 71 72 66 126 101 141 92 8 -5
9 -25 5 -60 -5 -44 -2 -57 15 -78 28 -37 119 -58 119 -28 0 30 -122 1174 -128
1201 -7 29 -2 47 27 108 20 39 39 72 42 72 4 0 25 -46 47 -102z m1952 49 c45
-58 96 -154 88 -162 -3 -4 -15 -1 -27 6 -11 7 -23 11 -26 7 -3 -3 19 -77 50
-164 31 -87 61 -183 67 -214 21 -115 -16 -256 -86 -326 -136 -138 -344 -36
-422 206 l-18 54 -21 -69 c-60 -196 -171 -316 -304 -332 -117 -14 -221 48
-261 155 -35 92 -37 197 -6 325 14 60 26 117 26 128 0 58 -71 -25 -111 -130
-12 -31 -32 -108 -45 -172 -29 -146 -57 -220 -98 -263 -37 -39 -71 -51 -121
-42 -124 24 -172 198 -129 470 18 114 40 161 27 56 -4 -36 -8 -119 -8 -185 0
-109 2 -125 25 -169 43 -83 129 -111 189 -60 33 28 50 74 91 254 41 178 131
361 219 444 53 50 51 11 -8 -239 -47 -198 -40 -286 26 -350 48 -47 124 -69
214 -63 116 9 190 68 240 195 21 51 23 73 22 188 -1 101 -6 148 -23 210 -13
44 -25 94 -27 110 -5 31 32 145 47 145 22 0 62 -173 89 -385 25 -189 42 -242
98 -305 78 -86 176 -110 269 -64 60 30 63 43 31 132 -74 201 -177 508 -177
529 0 35 41 134 53 130 7 -2 28 -24 47 -50z m-753 -15 c21 -21 47 -56 58 -77
22 -45 26 -139 8 -170 -10 -17 -12 -14 -11 26 1 69 -18 114 -68 158 -34 30
-44 45 -44 70 0 17 4 31 9 31 5 0 26 -17 48 -38z m-2857 -46 c-36 -79 -47
-140 -30 -161 18 -22 56 -18 80 7 17 19 20 19 20 5 0 -28 -25 -80 -48 -101
-27 -24 -67 -24 -93 0 -30 27 -22 109 19 195 28 58 67 119 77 119 2 0 -9 -29
-25 -64z m4792 47 c21 -19 23 -34 6 -51 -9 -9 -14 -7 -24 6 -10 13 -17 15 -31
6 -26 -16 -43 -55 -51 -120 -7 -60 -32 -88 -32 -37 0 38 -32 88 -67 105 -31
15 -53 62 -37 78 13 13 56 -19 93 -71 l28 -37 12 47 c22 86 60 113 103 74z
m-2488 -15 c9 -12 16 -38 16 -57 0 -22 8 -43 21 -57 36 -38 36 -100 0 -181
-32 -73 -40 -123 -20 -123 6 0 13 9 16 20 7 25 33 27 33 3 0 -30 -38 -83 -60
-83 -22 0 -40 28 -40 63 0 14 14 57 30 95 31 74 38 129 19 164 -10 19 -12 18
-32 -22 -42 -82 -108 -152 -182 -192 -94 -51 -110 -48 -38 6 32 24 82 69 110
99 59 62 106 147 86 154 -22 8 -51 37 -57 59 -8 28 28 74 59 74 13 0 31 -10
39 -22z m-435 -97 c60 -60 75 -96 76 -173 0 -37 -5 -72 -10 -77 -7 -7 -11 6
-11 42 -1 64 -21 104 -74 149 -31 27 -40 42 -40 66 0 18 5 32 10 32 6 0 28
-18 49 -39z m-688 -78 c6 -18 17 -33 25 -33 17 0 18 14 3 41 -10 20 -4 59 10
59 14 0 31 -50 31 -89 0 -51 -21 -69 -61 -54 -24 9 -35 8 -59 -5 -27 -16 -30
-15 -49 2 -25 23 -28 82 -7 111 13 18 14 17 13 -18 -1 -41 14 -63 37 -54 11 4
16 19 16 42 0 20 6 46 12 58 l13 22 3 -25 c2 -14 8 -40 13 -57z m3747 -10 c-2
-11 -56 -38 -158 -80 -182 -74 -260 -111 -260 -123 0 -5 9 -12 20 -15 11 -4
20 -15 20 -26 0 -16 -4 -19 -22 -13 -37 11 -46 22 -40 52 7 41 20 52 102 90
95 44 311 131 328 131 8 1 12 -6 10 -16z m-1982 -180 c12 -42 20 -54 40 -59
36 -9 38 -1 16 50 -14 31 -18 54 -13 72 12 44 26 38 50 -21 26 -63 25 -135 -2
-162 -21 -21 -64 -19 -96 5 l-27 20 -22 -23 c-41 -42 -93 -36 -120 15 -16 31
-9 113 13 146 19 29 41 33 25 5 -16 -31 -12 -87 9 -112 18 -22 19 -22 45 -6
23 15 26 24 26 74 0 40 5 62 18 76 17 19 17 19 20 -4 2 -13 10 -48 18 -76z
m-1719 -59 c35 -46 53 -119 43 -173 -11 -59 -20 -63 -20 -7 0 63 -19 104 -68
148 -34 31 -42 44 -42 74 l0 35 30 -21 c17 -12 42 -37 57 -56z m3555 -212 c6
-65 28 -106 57 -110 20 -3 23 0 18 20 -3 12 -11 37 -18 55 -10 25 -10 37 -1
57 6 14 15 26 19 26 5 0 19 -28 31 -61 24 -61 24 -108 1 -151 -13 -24 -70 -23
-100 1 -23 19 -24 19 -52 -5 -50 -42 -108 -27 -123 32 -10 41 2 115 23 136 19
19 19 18 15 -40 -5 -71 13 -98 52 -80 25 11 36 43 36 107 0 34 14 61 31 61 3
0 9 -21 11 -48z m1646 -27 c65 -70 85 -130 80 -230 -5 -100 -25 -121 -25 -27
0 88 -35 158 -105 211 -37 27 -48 42 -48 62 0 73 20 70 98 -16z m-4328 -22
c-2 -31 -45 -65 -180 -144 -85 -48 -156 -87 -158 -84 -2 2 3 15 10 30 10 17
66 57 164 115 148 89 164 97 164 83z m1849 -179 c20 -45 -27 -125 -111 -187
-30 -22 -98 -51 -98 -42 0 2 26 22 58 43 69 48 91 71 94 101 5 38 -26 50 -62
23 -36 -27 -38 -18 -6 21 28 34 75 67 97 67 9 0 21 -12 28 -26z m1128 -97
c-13 -19 -410 -257 -444 -265 -10 -3 -10 4 1 29 11 27 48 52 232 159 214 124
251 138 211 77z m-2376 -54 c48 -75 154 -300 183 -388 41 -127 66 -258 76
-399 10 -132 27 -211 60 -276 22 -42 121 -150 137 -150 7 0 15 17 19 38 21
114 109 179 364 266 l105 36 -332 0 c-183 0 -333 3 -333 7 0 4 8 43 17 86 16
73 19 80 67 121 78 66 209 148 343 214 66 33 127 62 134 64 10 3 7 14 -10 42
-32 51 -30 101 5 166 52 95 102 112 197 64 63 -32 163 -102 197 -138 l24 -27
-24 -72 -25 -71 -64 -13 c-35 -7 -82 -18 -104 -24 l-40 -10 6 -43 c11 -80 -14
-117 -33 -48 -18 67 -21 69 -87 47 -84 -28 -302 -139 -343 -174 l-35 -30 542
-1 c298 0 544 -3 547 -8 2 -4 -12 -38 -32 -76 l-37 -69 -160 -38 c-405 -94
-784 -222 -833 -282 -23 -28 36 -59 203 -107 l90 -26 3 -89 3 -88 -94 7 c-181
12 -271 50 -370 156 -98 103 -165 266 -184 442 -7 68 -11 65 -38 -34 -15 -53
-25 -66 -134 -170 -239 -229 -474 -358 -605 -334 -47 9 -95 51 -118 103 l-19
42 -100 -66 c-71 -46 -128 -74 -192 -95 -78 -25 -397 -101 -517 -122 -32 -6
-33 -5 -15 7 11 8 86 48 166 90 191 100 385 210 536 304 l122 77 26 85 c15 47
36 104 47 126 28 53 79 128 85 122 2 -3 -11 -36 -30 -73 -36 -72 -59 -135 -72
-193 l-7 -34 77 54 c179 125 355 289 355 331 0 13 -40 119 -89 235 l-89 212
24 82 c13 45 26 85 30 88 16 16 150 -183 160 -240 l7 -34 -28 25 c-16 14 -25
18 -22 10 3 -8 17 -42 31 -75 64 -153 72 -316 21 -421 -33 -68 -161 -204 -292
-310 -147 -121 -148 -122 -141 -129 16 -17 87 -24 148 -14 135 20 295 126 518
344 l133 130 -61 195 c-34 107 -88 253 -121 323 -32 71 -59 137 -59 148 0 34
32 149 41 149 5 0 23 -21 40 -47z m-2462 13 c35 -19 89 -80 106 -120 15 -36 9
-85 -13 -93 -8 -4 -30 0 -50 7 -31 11 -36 10 -45 -6 -5 -11 -33 -42 -62 -70
-57 -57 -193 -129 -260 -139 -40 -6 -40 -6 27 34 107 64 180 115 228 162 44
43 44 43 20 49 -20 5 -26 13 -28 44 -2 21 1 43 6 48 7 7 7 20 0 39 -18 52 16
73 71 45z m2917 -133 c12 -42 20 -54 40 -59 36 -9 38 -1 15 50 -16 38 -18 52
-9 77 14 40 26 33 49 -26 23 -61 24 -123 3 -153 -20 -29 -70 -29 -101 0 l-23
22 -15 -21 c-8 -12 -27 -25 -42 -31 -80 -27 -127 73 -81 173 16 34 40 42 28 9
-15 -39 -12 -80 9 -105 18 -22 19 -22 45 -6 23 15 26 24 26 74 0 40 5 62 18
76 17 19 17 19 20 -4 2 -13 10 -48 18 -76z m-2706 -157 c0 -8 -10 -26 -22 -40
-24 -26 -426 -261 -434 -253 -3 3 -2 15 1 28 5 18 57 54 223 151 119 70 220
127 225 128 4 0 7 -6 7 -14z m3743 -53 c2 -5 8 -41 11 -82 7 -68 6 -74 -8 -62
-14 12 -23 7 -66 -38 -55 -58 -137 -101 -190 -101 -33 1 -31 3 37 35 45 21 92
53 123 84 l51 51 -20 26 c-25 32 -26 51 -4 76 16 18 58 25 66 11z m-3770 -163
c-15 -33 -28 -58 -30 -56 -5 4 44 116 51 116 2 0 -7 -27 -21 -60z m1740 2 c19
-17 20 -21 8 -41 -7 -11 -13 -10 -34 3 -24 16 -26 16 -45 -9 -12 -15 -24 -47
-27 -73 -15 -113 -28 -133 -40 -62 -7 43 -39 90 -60 90 -19 0 -45 39 -45 67 0
13 6 23 14 23 15 0 96 -84 96 -100 0 -5 4 -10 8 -10 5 0 14 22 21 49 21 83 56
104 104 63z m-2143 -255 c-35 -79 -45 -128 -31 -156 16 -29 55 -27 80 5 19 25
21 25 21 6 0 -59 -48 -122 -92 -122 -66 0 -86 73 -47 172 23 59 80 158 91 158
4 0 -6 -28 -22 -63z m2852 -384 c36 -33 8 -103 -42 -103 -15 0 -38 -8 -50 -18
-21 -17 -21 -18 -5 -89 9 -39 15 -93 13 -120 l-3 -48 -24 75 c-13 41 -26 101
-29 132 -4 53 -3 59 26 87 17 17 38 31 46 31 9 0 16 5 16 10 0 6 -4 10 -9 10
-6 0 -13 -4 -16 -10 -9 -15 -25 -12 -25 5 0 22 37 55 62 55 12 0 30 -7 40 -17z
m1343 -25 c-29 -50 -33 -115 -9 -125 9 -3 20 0 26 8 7 10 8 5 3 -16 -3 -16
-13 -36 -20 -44 -13 -13 -17 -12 -35 4 -35 31 -22 116 27 183 33 44 36 40 8
-10z m-267 -12 c13 -13 9 -19 -33 -48 -72 -49 -115 -88 -115 -104 0 -35 114
-29 195 11 27 13 51 22 53 20 6 -6 -102 -87 -135 -101 -90 -38 -190 17 -154
85 11 20 69 73 98 89 29 17 9 23 -38 13 -24 -5 -46 -8 -48 -5 -9 8 15 38 40
52 30 16 117 8 137 -12z m1251 -82 c24 -25 49 -61 57 -79 16 -39 19 -133 4
-155 -7 -11 -10 -3 -10 29 0 72 -51 153 -118 186 -6 4 11 65 18 65 4 0 26 -21
49 -46z m927 -21 c-12 -25 -53 -47 -262 -141 -136 -62 -249 -110 -251 -108 -3
2 2 17 10 32 11 22 60 48 263 140 137 62 250 111 252 109 2 -2 -3 -16 -12 -32z"/>
<path d="M12203 8735 c-155 -150 -173 -170 -173 -200 0 -29 22 -55 200 -236
198 -202 200 -204 195 -164 -3 22 -14 195 -25 385 -11 190 -22 353 -23 363 -1
13 -52 -30 -174 -148z"/>
<path d="M11806 8798 c18 -31 86 -119 89 -116 2 2 1 25 -2 52 -5 43 -9 50 -39
62 -41 17 -57 18 -48 2z"/>
<path d="M11795 8328 c-61 -62 -149 -153 -196 -203 l-87 -90 13 -130 c20 -195
1 -318 -66 -424 l-29 -46 0 210 c0 116 -3 227 -7 248 l-6 39 -127 -127 -128
-128 33 -43 c74 -97 93 -237 46 -342 -48 -107 -171 -186 -309 -199 l-64 -6 7
-46 c14 -94 54 -197 93 -241 31 -35 43 -42 75 -42 76 0 110 43 152 190 54 187
129 307 234 374 92 58 139 29 186 -111 47 -143 93 -185 199 -185 69 1 121 15
184 51 l43 25 -5 61 c-4 34 -29 314 -56 622 -55 621 -59 655 -69 655 -3 0 -56
-51 -116 -112z m58 -536 c53 -51 78 -102 70 -142 -7 -39 -25 -47 -71 -30 -30
11 -37 11 -40 -1 -3 -8 -30 -39 -61 -70 -63 -61 -196 -134 -266 -144 l-40 -6
30 19 c17 10 70 43 118 73 48 30 111 76 140 104 51 48 51 49 27 55 -20 5 -26
13 -28 44 -2 20 2 43 8 51 8 9 7 20 -1 39 -9 20 -9 29 1 42 21 24 68 10 113
-34z"/>
<path d="M11756 7724 c-7 -19 -8 -17 21 -33 26 -13 37 -1 28 29 -8 24 -40 26
-49 4z"/>
<path d="M11828 7705 c4 -33 7 -35 39 -35 32 0 34 2 22 17 -17 21 -52 52 -59
53 -4 0 -4 -16 -2 -35z"/>
<path d="M11015 7519 c-75 -91 -134 -181 -135 -206 0 -35 31 -46 96 -34 100
19 214 83 214 120 0 24 -106 181 -122 181 -1 0 -25 -27 -53 -61z"/>
<path d="M7186 7907 c-26 -19 -15 -43 24 -51 49 -9 150 -7 150 3 0 5 -14 20
-31 32 -39 28 -116 36 -143 16z"/>
<path d="M7688 7866 c-14 -17 -46 -47 -71 -66 -39 -30 -46 -40 -47 -70 -1 -66
-28 -189 -53 -243 -31 -68 -147 -187 -278 -285 -106 -79 -308 -201 -411 -247
-37 -17 -68 -33 -68 -37 0 -3 23 -12 52 -18 93 -23 278 2 449 61 204 70 471
251 620 420 81 92 83 98 75 203 -12 160 -7 151 -81 151 -59 0 -67 3 -96 31
-17 18 -39 54 -48 82 l-17 50 -26 -32z"/>
<path d="M8486 9202 c-3 -5 6 -14 20 -21 22 -10 25 -9 22 6 -4 19 -33 30 -42
15z"/>
<path d="M9838 7993 c-28 -7 -21 -32 20 -77 l38 -42 65 20 c79 25 77 23 53 42
-56 45 -131 69 -176 57z"/>
<path d="M6436 8124 c-7 -19 -8 -18 21 -32 17 -10 22 -9 27 4 7 19 -10 44 -29
44 -7 0 -16 -7 -19 -16z"/>
<path d="M6504 8124 c3 -9 6 -24 6 -35 0 -14 7 -19 30 -19 37 0 38 9 2 43 -32
30 -47 35 -38 11z"/>
<path d="M10400 7841 c0 -6 5 -13 10 -16 6 -3 10 1 10 9 0 9 -4 16 -10 16 -5
0 -10 -4 -10 -9z"/>
<path d="M9490 5332 l-106 -327 -346 0 c-253 0 -344 -3 -335 -11 7 -6 129 -95
272 -199 143 -103 264 -191 268 -195 4 -3 -40 -152 -97 -330 -58 -178 -104
-326 -102 -328 2 -2 128 87 280 198 l276 201 277 -200 c152 -111 277 -200 279
-198 2 2 -44 149 -102 327 -58 177 -101 326 -97 330 4 4 125 92 268 195 143
103 265 193 272 199 9 8 -78 11 -335 11 l-346 0 -106 327 c-58 180 -107 327
-110 327 -3 0 -52 -147 -110 -327z"/>
<path d="M0 1600 l0 -1600 9600 0 9600 0 0 1600 0 1600 -9600 0 -9600 0 0
-1600z"/>
</g>
</svg>
