<?xml version="1.0" standalone="no"?>
<!DOCTYPE svg PUBLIC "-//W3C//DTD SVG 20010904//EN"
 "http://www.w3.org/TR/2001/REC-SVG-20010904/DTD/svg10.dtd">
<svg version="1.0" xmlns="http://www.w3.org/2000/svg"
 width="1920.000000pt" height="960.000000pt" viewBox="0 0 1920.000000 960.000000"
 preserveAspectRatio="xMidYMid meet">

<g transform="translate(0.000000,960.000000) scale(0.100000,-0.100000)"
fill="#000000" stroke="none">
<path d="M0 4800 l0 -4800 9600 0 9600 0 0 4800 0 4800 -9600 0 -9600 0 0
-4800z m2456 4148 l50 -153 174 -5 175 -5 -138 -99 c-75 -54 -137 -103 -137
-110 0 -6 22 -78 49 -161 27 -82 48 -151 46 -153 -2 -2 -62 40 -134 92 -72 53
-136 96 -141 96 -5 0 -69 -43 -141 -96 -72 -53 -132 -94 -134 -92 -2 1 19 71
46 153 27 83 49 155 49 161 0 7 -61 56 -136 110 l-136 99 173 5 173 5 50 153
c28 83 53 152 56 152 3 0 28 -69 56 -152z m90 -839 c124 -52 232 -126 340
-233 114 -115 180 -209 236 -339 119 -276 112 -552 -20 -771 l-36 -59 142
-136 c118 -114 142 -142 147 -173 14 -74 -30 -140 -100 -154 -64 -12 -94 9
-238 160 l-137 144 -48 -23 c-237 -114 -559 -59 -762 131 l-47 44 -17 -25 c-9
-13 -34 -34 -57 -45 -62 -32 -118 -95 -155 -175 -59 -131 -145 -202 -254 -212
-80 -8 -100 9 -100 81 0 109 74 206 203 269 92 44 140 85 179 154 23 42 42 60
79 78 27 14 61 25 76 25 14 0 37 9 49 20 l21 21 73 -55 c128 -96 272 -132 410
-104 41 9 88 21 103 27 l29 11 -91 98 c-50 53 -178 187 -285 297 l-195 200
-110 -110 -111 -110 -121 121 -120 120 239 235 239 236 203 -28 c112 -16 206
-31 209 -35 3 -3 -62 -70 -144 -150 l-150 -144 75 -71 c41 -40 180 -171 308
-292 263 -248 242 -239 296 -133 59 117 71 256 37 421 -58 281 -228 531 -466
688 -70 46 -46 45 71 -4z"/>
<path d="M2361 8830 l-32 -100 -106 0 -107 0 85 -61 c46 -34 85 -63 86 -64 2
-1 -13 -47 -31 -103 -19 -56 -32 -102 -30 -102 3 0 43 27 89 61 54 39 89 58
97 53 7 -4 45 -32 85 -61 40 -29 74 -53 77 -53 2 0 -11 46 -30 102 -32 95 -33
102 -16 114 9 6 48 35 87 63 l70 51 -107 0 -107 0 -32 100 c-19 55 -36 100
-39 100 -3 0 -20 -45 -39 -100z"/>
</g>
</svg>
