<?xml version="1.0" encoding="UTF-8"?>
<!DOCTYPE svg PUBLIC "-//W3C//DTD SVG 1.1//EN" "http://www.w3.org/Graphics/SVG/1.1/DTD/svg11.dtd">
<!-- Creator: CorelDRAW -->
<svg xmlns="http://www.w3.org/2000/svg" xml:space="preserve" width="500px" height="500px" version="1.1" style="shape-rendering:geometricPrecision; text-rendering:geometricPrecision; image-rendering:optimizeQuality; fill-rule:evenodd; clip-rule:evenodd"
viewBox="0 0 239.53 239.53"
 xmlns:xlink="http://www.w3.org/1999/xlink"
 xmlns:xodm="http://www.corel.com/coreldraw/odm/2003">
 <defs>
  <style type="text/css">
   <![CDATA[
    .fil0 {fill:none}
    .fil1 {fill:yellow;fill-rule:nonzero}
   ]]>
  </style>
 </defs>
 <g id="Livello_x0020_1">
  <metadata id="CorelCorpID_0Corel-Layer"/>
  <rect class="fil0" width="239.53" height="239.53"/>
  <path class="fil1" d="M151.24 68.12l-71.56 -41.08c-2.87,-1.62 -6.21,-1.9 -9.23,-0.67l-14.75 5.94c-3.7,1.47 -4.96,6.5 -2.55,9.9l36.44 50.66 -35.97 14.42 -21.58 -14.5c-2.23,-1.5 -4.96,-1.78 -7.44,-0.83l-5.85 2.38c-3.37,1.35 -4.81,5.74 -2.98,9.15l19.25 36.36c5.6,10.58 17.27,15.21 27.68,11.01l4.63 -1.86 0 0 143.04 -57.43c10.45,-4.2 15.8,-16.92 12.03,-28.44 -3.77,-11.53 -15.33,-17.43 -25.78,-13.27l-45.38 18.26zm-122 120.45c-6.36,0 -11.49,5.66 -11.49,12.67 0,7.01 5.13,12.68 11.49,12.68l183.83 0c6.35,0 11.49,-5.67 11.49,-12.68 0,-7.01 -5.14,-12.67 -11.49,-12.67l-183.83 0z"/>
 </g>
</svg>
